<?xml version="1.0" encoding="UTF-8" standalone="no"?>
<!-- Created with Inkscape (http://www.inkscape.org/) -->

<svg
   xmlns:dc="http://purl.org/dc/elements/1.1/"
   xmlns:cc="http://creativecommons.org/ns#"
   xmlns:rdf="http://www.w3.org/1999/02/22-rdf-syntax-ns#"
   xmlns:svg="http://www.w3.org/2000/svg"
   xmlns="http://www.w3.org/2000/svg"
   xmlns:sodipodi="http://sodipodi.sourceforge.net/DTD/sodipodi-0.dtd"
   xmlns:inkscape="http://www.inkscape.org/namespaces/inkscape"
   version="1.1"
   id="svg3688"
   xml:space="preserve"
   width="15"
   height="15"
   viewBox="0 0 15 15"
   sodipodi:docname="47.11_15.svg"
   inkscape:version="0.92.1 r15371"><metadata
     id="metadata3694"><rdf:RDF><cc:Work
         rdf:about=""><dc:format>image/svg+xml</dc:format><dc:type
           rdf:resource="http://purl.org/dc/dcmitype/StillImage" /><dc:title></dc:title></cc:Work></rdf:RDF></metadata><defs
     id="defs3692" /><sodipodi:namedview
     pagecolor="#ffffff"
     bordercolor="#666666"
     borderopacity="1"
     objecttolerance="10"
     gridtolerance="10"
     guidetolerance="10"
     inkscape:pageopacity="0"
     inkscape:pageshadow="2"
     inkscape:window-width="1920"
     inkscape:window-height="1137"
     id="namedview3690"
     showgrid="true"
     inkscape:zoom="45.254834"
     inkscape:cx="3.759597"
     inkscape:cy="6.0736256"
     inkscape:window-x="1912"
     inkscape:window-y="10"
     inkscape:window-maximized="1"
     inkscape:current-layer="g3696"
     inkscape:measure-start="0,0"
     inkscape:measure-end="0,0"><inkscape:grid
       type="xygrid"
       id="grid3700" /></sodipodi:namedview><g
     id="g3696"
     inkscape:groupmode="layer"
     inkscape:label="maki-template-illustrator-CS6"
     transform="matrix(1.3333333,0,0,-1.3333333,0,15)"><path
       transform="scale(1,-1)"
       style="stroke-width:0.75"
       d="m 1.5,-11.25 h 8.25 l 1.5,2.2499998 H 0 Z"
       id="rect25"
       inkscape:connector-curvature="0"
       sodipodi:nodetypes="ccccc" /><path
       id="path94"
       transform="scale(1,-1)"
       sodipodi:type="arc"
       sodipodi:cx="1.125"
       sodipodi:cy="-9"
       sodipodi:rx="1.125"
       sodipodi:ry="1.125"
       sodipodi:start="0"
       sodipodi:end="3.1415927"
       d="m 2.25,-9 a 1.125,1.125 0 0 1 -0.5625,0.9742786 1.125,1.125 0 0 1 -1.12500003,0 A 1.125,1.125 0 0 1 0,-9.0000001 L 1.125,-9 Z"
       style="stroke-width:0.75" /><path
       id="path94-2"
       sodipodi:type="arc"
       sodipodi:cx="3.375"
       sodipodi:cy="-9"
       sodipodi:rx="1.125"
       sodipodi:ry="1.125"
       sodipodi:start="0"
       sodipodi:end="3.1415927"
       d="m 4.5,-9 a 1.125,1.125 0 0 1 -0.5625,0.9742786 1.125,1.125 0 0 1 -1.125,0 A 1.125,1.125 0 0 1 2.25,-9.0000001 L 3.375,-9 Z"
       style="stroke-width:0.75"
       transform="scale(1,-1)" /><path
       id="path94-2-6"
       sodipodi:type="arc"
       sodipodi:cx="5.625"
       sodipodi:cy="-9"
       sodipodi:rx="1.125"
       sodipodi:ry="1.125"
       sodipodi:start="0"
       sodipodi:end="3.1415927"
       d="m 6.75,-9 a 1.125,1.125 0 0 1 -0.5625,0.9742786 1.125,1.125 0 0 1 -1.125,0 A 1.125,1.125 0 0 1 4.5,-9.0000001 L 5.625,-9 Z"
       style="stroke-width:0.75"
       transform="scale(1,-1)" /><path
       id="path94-9"
       sodipodi:type="arc"
       sodipodi:cx="7.875"
       sodipodi:cy="-9"
       sodipodi:rx="1.125"
       sodipodi:ry="1.125"
       sodipodi:start="0"
       sodipodi:end="3.1415927"
       d="m 9,-9 a 1.125,1.125 0 0 1 -0.5625,0.9742786 1.125,1.125 0 0 1 -1.125,0 A 1.125,1.125 0 0 1 6.75,-9.0000001 L 7.875,-9 Z"
       style="stroke-width:0.75"
       transform="scale(1,-1)" /><path
       id="path94-2-2"
       sodipodi:type="arc"
       sodipodi:cx="10.109931"
       sodipodi:cy="-9"
       sodipodi:rx="1.125"
       sodipodi:ry="1.125"
       sodipodi:start="0"
       sodipodi:end="3.1415927"
       d="m 11.234931,-9 a 1.125,1.125 0 0 1 -0.5625,0.9742786 1.125,1.125 0 0 1 -1.125,0 1.125,1.125 0 0 1 -0.5625,-0.9742787 l 1.125,10e-8 z"
       style="stroke-width:0.75"
       transform="scale(1,-1)" /><circle
       id="path155"
       transform="scale(1,-1)"
       style="stroke-width:0.61153835"
       cx="3.8301947"
       cy="-0.61153835"
       r="0.61153835" /><circle
       id="path155-2"
       style="stroke-width:0.61153835"
       cx="7.4994221"
       cy="-0.61153883"
       transform="scale(1,-1)"
       r="0.61153835" /><path
       style="stroke-width:1.2230767"
       d="m 2.6071147,5.5038446 h 6.1153862 l -0.611543,-3.6692294 -4.8923055,-1e-7 z"
       id="rect172"
       inkscape:connector-curvature="0"
       sodipodi:nodetypes="ccccc" /><path
       style="fill:#000000;fill-opacity:1;stroke:none;stroke-width:1.2230767px;stroke-linecap:butt;stroke-linejoin:miter;stroke-opacity:1"
       d="M 2.6071147,5.5038439 2.4494521,6.1153822 H 0.77250002 v 0.659314 H 2.8842186 L 3.2186524,5.503844 Z"
       id="path179"
       inkscape:connector-curvature="0" /></g></svg>