<?xml version="1.0" encoding="UTF-8" standalone="no"?>
<!-- Created with Inkscape (http://www.inkscape.org/) -->

<svg
   xmlns:dc="http://purl.org/dc/elements/1.1/"
   xmlns:cc="http://creativecommons.org/ns#"
   xmlns:rdf="http://www.w3.org/1999/02/22-rdf-syntax-ns#"
   xmlns:svg="http://www.w3.org/2000/svg"
   xmlns="http://www.w3.org/2000/svg"
   xmlns:sodipodi="http://sodipodi.sourceforge.net/DTD/sodipodi-0.dtd"
   xmlns:inkscape="http://www.inkscape.org/namespaces/inkscape"
   version="1.1"
   id="svg3688"
   xml:space="preserve"
   width="15"
   height="15"
   viewBox="0 0 15 15"
   sodipodi:docname="A_15.svg"
   inkscape:version="0.92.1 r15371"><metadata
     id="metadata3694"><rdf:RDF><cc:Work
         rdf:about=""><dc:format>image/svg+xml</dc:format><dc:type
           rdf:resource="http://purl.org/dc/dcmitype/StillImage" /><dc:title></dc:title></cc:Work></rdf:RDF></metadata><defs
     id="defs3692" /><sodipodi:namedview
     pagecolor="#ffffff"
     bordercolor="#666666"
     borderopacity="1"
     objecttolerance="10"
     gridtolerance="10"
     guidetolerance="10"
     inkscape:pageopacity="0"
     inkscape:pageshadow="2"
     inkscape:window-width="1920"
     inkscape:window-height="1137"
     id="namedview3690"
     showgrid="true"
     inkscape:zoom="34.223968"
     inkscape:cx="4.1484215"
     inkscape:cy="4.3809735"
     inkscape:window-x="1912"
     inkscape:window-y="10"
     inkscape:window-maximized="1"
     inkscape:current-layer="g3696"
     inkscape:measure-start="0,0"
     inkscape:measure-end="0,0"><inkscape:grid
       type="xygrid"
       id="grid3700" /></sodipodi:namedview><g
     id="g3696"
     inkscape:groupmode="layer"
     inkscape:label="maki-template-illustrator-CS6"
     transform="matrix(1.3333333,0,0,-1.3333333,0,15)"><path
       inkscape:connector-curvature="0"
       d="m 11.186991,1.3345736 v 0 L 9.8098272,2.8175371 h 1.2210448 c 0.120422,0 0.218043,0.1051216 0.218043,0.2347947 -3.94e-4,0.063885 -0.02534,0.1247442 -0.0689,0.168113 L 9.8098272,4.6958949 h 0.6419208 c 0.120423,0 0.218044,0.1051216 0.218044,0.2347946 -1.68e-4,0.063744 -0.02477,0.1245803 -0.06803,0.1681128 v 0 L 9.5551523,6.2755935 C 9.4711583,6.4020833 9.2988383,6.409042 9.2062824,6.2896811 9.1888389,6.26808 8.1509511,5.1006807 8.1509511,5.1006807 8.1061084,5.0576533 8.0801504,4.9962982 8.0794327,4.9316288 c 0,-0.1296736 0.097622,-0.2347948 0.2180435,-0.2347948 H 8.9376525 L 7.5639777,3.2166881 v 0 C 7.4275849,3.0697053 7.5236483,2.8184856 7.7166083,2.8175371 H 8.9376525 L 7.5718273,1.3467829 v 0 C 7.5268952,1.3038297 7.5009188,1.2424265 7.5003088,1.1777307 7.4983665,1.0473249 7.5954942,0.94020551 7.7166082,0.93917893 H 8.9376525 V 0 h 0.8721747 v 0.93917893 h 1.2210448 c 0.193097,-0.003131 0.292186,0.24782157 0.156119,0.39539467 z"
       id="path3774"
       style="stroke-width:0.90505689"
       sodipodi:nodetypes="cccscccscccccccsccccccccccccccc" /><path
       inkscape:connector-curvature="0"
       d="M 9.3747825,9.6537111 V 9.4859885 c 0,-0.7022082 -0.6817979,-0.3542359 -0.6817979,-0.3542359 H 7.3293885 A 2.1006197,2.1442058 0 0 0 6.6475906,8.0878354 1.9417609,1.9820508 0 0 0 6.3639626,7.4614852 0.17726749,0.18094564 0 0 1 6.3298727,7.2930665 L 6.6421362,6.2143522 A 0.15476815,0.15797945 0 0 0 6.6475932,6.1739868 0.17044949,0.17398618 0 0 0 6.4771412,6.0000011 0.17658569,0.18024969 0 0 0 6.3107824,6.1203996 L 5.9657927,7.3918907 V 7.7398631 H 3.749949 L 3.6067715,7.4475663 A 0.17044949,0.17398618 0 0 1 3.5931354,7.3306475 L 3.9203984,6.1739873 A 0.17044949,0.17398618 0 0 0 3.749949,6.0000011 0.17726749,0.18094564 0 0 0 3.5883629,6.1197038 L 3.2386005,7.3918907 V 7.7398631 A 2.7360556,2.7928264 0 0 0 2.6638446,7.8365994 0.94292664,0.96249157 0 0 0 2.3229456,7.109337 0.16499511,0.16841862 0 0 1 2.2588567,6.9130806 L 2.5411211,6.2240954 a 0.14522297,0.14823623 0 0 0 0.0075,-0.050109 0.17044949,0.17398618 0 0 0 -0.1704495,-0.1739862 0.1724949,0.17607402 0 0 0 -0.15545,0.1029997 l -0.347714,0.9409176 a 4.1119239,4.1972429 0 0 1 0,1.3918897 v 1.3918899 a 1.0131518,1.0341739 0 0 0 1.3635929,0.9743239 c 0,0 0.5236209,-0.09186 0.7499778,-0.107176 a 1.6751777,1.7099362 0 0 1 0.6136183,0.116223 1.1358756,1.159444 0 0 0 0.3408989,0.06055 1.1236031,1.1469169 0 0 0 0.5754377,-0.178859 2.1585726,2.2033611 0 0 1 0.6136181,-0.160068 l 0.5154393,-0.0091 c 0,0 0.6586169,0.336838 0.6817979,0.347973 v 0.347968 l 0.3408991,-0.348007 a 1.0049702,1.0258225 0 0 0 1.022697,0.347971 0.62316341,0.63609352 0 0 1 -0.681798,-0.347971 l 0.681798,-0.695901 0.4636231,-0.3681555 a 0.28976416,0.29577652 0 0 0 0.047723,0.020182 0.16226793,0.16563485 0 0 0 0.170452,-0.1739859 z"
       id="path3800"
       style="stroke-width:0.68883514" /><path
       inkscape:connector-curvature="0"
       d="M 4.5000001,3.5199927 C 4.4988281,3.4718101 4.4819514,3.4250534 4.4515493,3.385749 4.053035,2.9214512 3.8031193,2.3646418 3.7297297,1.777546 3.7087937,1.020931 3.2105682,0.34440733 2.4531971,0.04416996 c -0.1306393,-0.05889328 -0.2836651,-0.05889328 -0.4143046,0 C 1.2819074,0.34467815 0.78411438,1.021145 0.76334839,1.777546 0.691061,2.3631604 0.44249402,2.9187559 0.04548409,3.3821208 0.01639994,3.421853 5.9218582e-4,3.4685082 0,3.5163645 c 0,0.1252378 0.11067916,0.2267629 0.24719846,0.2267629 0.0223603,-1.447e-4 0.0446275,-0.00287 0.0662491,-0.00811 C 0.90430163,3.5369724 1.4091468,3.1683938 1.7521423,2.6846584 L 1.9993409,4.2955825 C 2.0273839,4.5551 2.432472,4.5731535 2.487805,4.3173516 L 2.7409361,2.6846584 c 0.3432827,0.4829708 0.8470849,0.851612 1.4367173,1.051273 0.024364,0.00688 0.049664,0.010549 0.075148,0.010887 0.1365234,0 0.2471984,-0.1015265 0.2471984,-0.226763 z"
       id="path3774-6"
       style="stroke-width:0.94704139"
       sodipodi:nodetypes="ccccccccccccccccsc" /></g></svg>