<?xml version="1.0" encoding="UTF-8" standalone="no"?>
<!-- Created with Inkscape (http://www.inkscape.org/) -->

<svg
   xmlns:dc="http://purl.org/dc/elements/1.1/"
   xmlns:cc="http://creativecommons.org/ns#"
   xmlns:rdf="http://www.w3.org/1999/02/22-rdf-syntax-ns#"
   xmlns:svg="http://www.w3.org/2000/svg"
   xmlns="http://www.w3.org/2000/svg"
   xmlns:sodipodi="http://sodipodi.sourceforge.net/DTD/sodipodi-0.dtd"
   xmlns:inkscape="http://www.inkscape.org/namespaces/inkscape"
   version="1.1"
   id="svg3688"
   xml:space="preserve"
   width="15"
   height="15"
   viewBox="0 0 15 15"
   sodipodi:docname="A_15.svg"
   inkscape:version="0.92.1 r15371"><metadata
     id="metadata3694"><rdf:RDF><cc:Work
         rdf:about=""><dc:format>image/svg+xml</dc:format><dc:type
           rdf:resource="http://purl.org/dc/dcmitype/StillImage" /><dc:title></dc:title></cc:Work></rdf:RDF></metadata><defs
     id="defs3692" /><sodipodi:namedview
     pagecolor="#ffffff"
     bordercolor="#666666"
     borderopacity="1"
     objecttolerance="10"
     gridtolerance="10"
     guidetolerance="10"
     inkscape:pageopacity="0"
     inkscape:pageshadow="2"
     inkscape:window-width="1920"
     inkscape:window-height="1137"
     id="namedview3690"
     showgrid="true"
     inkscape:zoom="48.4"
     inkscape:cx="7.6146954"
     inkscape:cy="7.5018595"
     inkscape:window-x="1912"
     inkscape:window-y="10"
     inkscape:window-maximized="1"
     inkscape:current-layer="g3696"
     inkscape:measure-start="0,0"
     inkscape:measure-end="0,0"><inkscape:grid
       type="xygrid"
       id="grid3700" /></sodipodi:namedview><g
     id="g3696"
     inkscape:groupmode="layer"
     inkscape:label="maki-template-illustrator-CS6"
     transform="matrix(1.3333333,0,0,-1.3333333,0,15)"><path
       inkscape:connector-curvature="0"
       d="m 10.18425,1.81575 v 0 L 9.0000002,3.0000001 H 10.05 c 0.103553,0 0.1875,0.083947 0.1875,0.1875 -3.39e-4,0.051017 -0.02179,0.099617 -0.05925,0.13425 l -1.1782498,1.17825 H 9.552 c 0.103554,0 0.1875,0.083947 0.1875,0.1875 -1.45e-4,0.050904 -0.02131,0.099486 -0.0585,0.1342498 v 0 l -0.8999998,0.93975 c -0.072228,0.101011 -0.2204094,0.106568 -0.3,0.01125 -0.015,-0.01725 -0.9075,-0.9495 -0.9075,-0.9495 -0.038561,-0.03436 -0.060883,-0.083357 -0.0615,-0.1349998 0,-0.1035534 0.083947,-0.1875 0.1875,-0.1875 h 0.5505 l -1.18125,-1.182 v 0 c -0.1172867,-0.117376 -0.03468,-0.3179926 0.13125,-0.31875 h 1.05 L 7.0755002,1.8255 v 0 c -0.038638,-0.034301 -0.060976,-0.083336 -0.0615,-0.135 -0.00167,-0.1041381 0.081852,-0.1896804 0.186,-0.1905002 h 1.05 V 0.74999978 h 0.75 V 1.4999998 H 10.05 c 0.166048,-0.0025 0.251256,0.1979029 0.13425,0.3157502 z"
       id="path3774"
       style="stroke-width:0.75"
       sodipodi:nodetypes="cccscccscccccccsccccccccccccccc" /><path
       inkscape:connector-curvature="0"
       d="M 9.0987315,8.9271072 V 8.7700857 c 0,-0.6574053 -0.6515416,-0.3316346 -0.6515416,-0.3316346 H 7.1441069 A 2.0073993,2.0073993 0 0 0 6.4925655,7.4611388 1.8555902,1.8555902 0 0 0 6.2215243,6.8747515 0.16940078,0.16940078 0 0 1 6.1889472,6.7170785 L 6.4873532,5.7071892 A 0.14789991,0.14789991 0 0 0 6.4925655,5.6693998 0.16288536,0.16288536 0 0 0 6.3296802,5.5065144 0.16874924,0.16874924 0 0 0 6.1707041,5.6192311 l -0.32968,1.1903663 V 7.1353681 H 3.7235143 L 3.5866906,6.8617207 A 0.16288536,0.16288536 0 0 1 3.5736597,6.7522617 L 3.8863996,5.6693998 A 0.16288536,0.16288536 0 0 0 3.7235143,5.5065144 0.16940078,0.16940078 0 0 0 3.5690989,5.6185796 L 3.2348582,6.8095974 V 7.1353681 A 2.614636,2.614636 0 0 0 2.6856086,7.2259324 0.90108184,0.90108184 0 0 0 2.3598379,6.5450715 0.15767303,0.15767303 0 0 1 2.298593,6.3613368 l 0.2697382,-0.645026 a 0.13877833,0.13877833 0 0 0 0.00717,-0.046911 0.16288536,0.16288536 0 0 0 -0.1628854,-0.1628854 0.16483999,0.16483999 0 0 0 -0.1485514,0.096428 l -0.3322862,0.880884 a 3.9294466,3.9294466 0 0 1 0,1.303083 v 1.303083 a 0.96819061,0.96819061 0 0 0 1.30308,0.9121586 c 0,0 0.5003838,-0.086003 0.7166956,-0.1003376 a 1.6008374,1.6008374 0 0 1 0.5863873,0.1088076 1.0854681,1.0854681 0 0 0 0.3257707,0.05668 1.0737403,1.0737403 0 0 0 0.5499011,-0.1674462 2.0627803,2.0627803 0 0 1 0.5863873,-0.1498546 l 0.4925653,-0.00851 c 0,0 0.6293891,0.3153468 0.6515414,0.3257708 v 0.325768 L 7.4698777,10.067262 A 0.96037211,0.96037211 0 0 0 8.4471899,10.393033 0.59550891,0.59550891 0 0 1 7.7956485,10.067262 L 8.4471899,9.41572 8.8902382,9.0710544 a 0.27690513,0.27690513 0 0 0 0.045608,0.018895 0.15506687,0.15506687 0 0 0 0.1628854,-0.1628853 z"
       id="path3800"
       style="stroke-width:0.65154147" /><path
       inkscape:connector-curvature="0"
       d="m 3.9254998,3.5722001 c -8.89e-4,-0.03984 -0.01369,-0.078501 -0.03675,-0.111 C 3.5864768,3.0772932 3.3969158,2.6168928 3.3412498,2.13145 3.3253698,1.5058393 2.9474658,0.94645259 2.373,0.69819999 c -0.09909,-0.048696 -0.21516,-0.048696 -0.31425,0 C 1.484577,0.94667659 1.107001,1.5060163 1.09125,2.13145 1.03642,2.615668 0.84788202,3.0750646 0.54675002,3.4582001 c -0.02206,0.032853 -0.03405,0.07143 -0.0345,0.111 0,0.1035534 0.08395,0.1875 0.1875,0.1875 0.01696,-1.196e-4 0.03385,-0.00237 0.05025,-0.0067 C 1.198163,3.5862398 1.581088,3.2814789 1.84125,2.8815001 l 0.1875,1.332 c 0.02127,0.2145833 0.32853,0.229511 0.3705,0.018 l 0.192,-1.35 c 0.2603798,0.3993466 0.6425138,0.7041593 1.0897498,0.86925 0.01848,0.00569 0.03767,0.00872 0.057,0.009 0.103553,0 0.1875,-0.083947 0.1875,-0.1875 z"
       id="path3774-6"
       style="stroke-width:0.75"
       sodipodi:nodetypes="ccccccccccccccccsc" /></g></svg>