<?xml version="1.0" encoding="UTF-8" standalone="no"?>
<!-- Created with Inkscape (http://www.inkscape.org/) -->

<svg
   xmlns:dc="http://purl.org/dc/elements/1.1/"
   xmlns:cc="http://creativecommons.org/ns#"
   xmlns:rdf="http://www.w3.org/1999/02/22-rdf-syntax-ns#"
   xmlns:svg="http://www.w3.org/2000/svg"
   xmlns="http://www.w3.org/2000/svg"
   xmlns:sodipodi="http://sodipodi.sourceforge.net/DTD/sodipodi-0.dtd"
   xmlns:inkscape="http://www.inkscape.org/namespaces/inkscape"
   version="1.1"
   id="svg3688"
   xml:space="preserve"
   width="15"
   height="15"
   viewBox="0 0 15 15"
   sodipodi:docname="D_15.svg"
   inkscape:version="0.92.1 r15371"><metadata
     id="metadata3694"><rdf:RDF><cc:Work
         rdf:about=""><dc:format>image/svg+xml</dc:format><dc:type
           rdf:resource="http://purl.org/dc/dcmitype/StillImage" /><dc:title /></cc:Work></rdf:RDF></metadata><defs
     id="defs3692" /><sodipodi:namedview
     pagecolor="#ffffff"
     bordercolor="#666666"
     borderopacity="1"
     objecttolerance="10"
     gridtolerance="10"
     guidetolerance="10"
     inkscape:pageopacity="0"
     inkscape:pageshadow="2"
     inkscape:window-width="1920"
     inkscape:window-height="1137"
     id="namedview3690"
     showgrid="true"
     inkscape:zoom="32"
     inkscape:cx="3.9734425"
     inkscape:cy="3.4313554"
     inkscape:window-x="1912"
     inkscape:window-y="10"
     inkscape:window-maximized="1"
     inkscape:current-layer="g3696"
     inkscape:measure-start="0,0"
     inkscape:measure-end="0,0"><inkscape:grid
       type="xygrid"
       id="grid3700" /></sodipodi:namedview><g
     id="g3696"
     inkscape:groupmode="layer"
     inkscape:label="maki-template-illustrator-CS6"
     transform="matrix(1.3333333,0,0,-1.3333333,0,15)"><path
       style="fill:#000000;fill-opacity:1;stroke:#ffffff;stroke-width:0.64564741;stroke-miterlimit:4;stroke-dasharray:none;stroke-opacity:1;paint-order:markers stroke fill"
       d="M 7.0137921,6.1309528 6.3710208,1.5266001 H 10.87763 L 10.233657,6.1309528 Z M 9.1871997,5.5552554 8.6237254,4.1743178 H 9.7506766 L 8.0602475,2.1022978 8.6237254,3.4832349 H 7.496772 Z"
       id="rect4499-3"
       inkscape:connector-curvature="0" /><path
       style="fill:#000000;fill-opacity:1;stroke:#ffffff;stroke-width:0.92240667;stroke-miterlimit:4;stroke-dasharray:none;stroke-opacity:1;paint-order:markers stroke fill"
       d="M 1.4484279,7.0387969 0.53006971,0.46120333 H 6.9688759 L 6.0488011,7.0387969 Z M 4.5536798,6.2163787 3.7486145,4.2436267 H 5.3587451 L 2.943549,1.2836221 3.7486145,3.2563734 H 2.1384837 Z"
       id="rect4499"
       inkscape:connector-curvature="0" /><path
       style="fill:#000000;fill-opacity:1;stroke:none;stroke-width:0.74999976"
       d="M 6.7792367,11.024116 A 1.5,1.4999992 0 0 1 5.3773814,10.054388 1.2474172,1.2474166 0 0 1 4.8192759,10.187689 1.2474172,1.2474166 0 0 1 3.571229,8.9396412 1.2474172,1.2474166 0 0 1 3.5873423,8.7477469 0.74999993,0.74999957 0 0 1 3.0292369,8.0241145 0.74999993,0.74999957 0 0 1 3.7792369,7.2741149 0.74999993,0.74999957 0 0 1 4.4735727,7.7428646 1.2474172,1.2474166 0 0 1 4.8192759,7.69306 1.2474172,1.2474166 0 0 1 5.8959361,8.3141535 1.5,1.4999992 0 0 1 6.7792367,8.0241145 1.5,1.4999992 0 0 1 7.9437872,8.5807548 1.0428717,1.0273755 0 0 1 8.7362679,8.2189385 1.0428717,1.0273755 0 0 1 9.7792366,9.2472583 1.0428717,1.0273755 0 0 1 8.7362679,10.274115 1.0428717,1.0273755 0 0 1 8.1605844,10.102728 1.5,1.4999992 0 0 1 6.7792367,11.024116 Z"
       id="path4528"
       inkscape:connector-curvature="0" /><path
       style="fill:#000000;fill-opacity:1;stroke:none;stroke-width:0.34223288"
       d="M 9.7500002,8.0625002 A 0.684466,0.68446564 0 0 1 9.1103183,7.6200029 0.56920977,0.5692095 0 0 1 8.855649,7.6808296 0.56920977,0.5692095 0 0 1 8.2861519,7.1113322 0.56920977,0.5692095 0 0 1 8.2935045,7.0237688 0.34223297,0.3422328 0 0 1 8.0388351,6.6935676 0.34223297,0.3422328 0 0 1 8.3810681,6.3513348 0.34223297,0.3422328 0 0 1 8.6979009,6.5652302 0.56920977,0.5692095 0 0 1 8.855649,6.5425037 0.56920977,0.5692095 0 0 1 9.3469405,6.8259153 0.684466,0.68446564 0 0 1 9.7500002,6.6935674 0.684466,0.68446564 0 0 1 10.281397,6.9475683 0.47587348,0.4688024 0 0 1 10.643014,6.7824677 0.47587348,0.4688024 0 0 1 11.118931,7.251701 0.47587348,0.4688024 0 0 1 10.643014,7.7202665 0.47587348,0.4688024 0 0 1 10.380323,7.6420608 0.684466,0.68446564 0 0 1 9.7500002,8.0625002 Z"
       id="path4528-6"
       inkscape:connector-curvature="0" /></g></svg>