<?xml version="1.0" encoding="UTF-8" standalone="no"?>
<!-- Created with Inkscape (http://www.inkscape.org/) -->

<svg
   xmlns:dc="http://purl.org/dc/elements/1.1/"
   xmlns:cc="http://creativecommons.org/ns#"
   xmlns:rdf="http://www.w3.org/1999/02/22-rdf-syntax-ns#"
   xmlns:svg="http://www.w3.org/2000/svg"
   xmlns="http://www.w3.org/2000/svg"
   xmlns:sodipodi="http://sodipodi.sourceforge.net/DTD/sodipodi-0.dtd"
   xmlns:inkscape="http://www.inkscape.org/namespaces/inkscape"
   inkscape:version="0.92.1 r15371"
   sodipodi:docname="F_15.svg"
   viewBox="0 0 15 15"
   height="15"
   width="15"
   xml:space="preserve"
   id="svg3688"
   version="1.1"><metadata
     id="metadata3694"><rdf:RDF><cc:Work
         rdf:about=""><dc:format>image/svg+xml</dc:format><dc:type
           rdf:resource="http://purl.org/dc/dcmitype/StillImage" /><dc:title></dc:title></cc:Work></rdf:RDF></metadata><defs
     id="defs3692" /><sodipodi:namedview
     inkscape:measure-end="0,0"
     inkscape:measure-start="0,0"
     inkscape:current-layer="g3696"
     inkscape:window-maximized="1"
     inkscape:window-y="10"
     inkscape:window-x="1912"
     inkscape:cy="8.3861183"
     inkscape:cx="14.549053"
     inkscape:zoom="45.254834"
     showgrid="true"
     id="namedview3690"
     inkscape:window-height="1137"
     inkscape:window-width="1920"
     inkscape:pageshadow="2"
     inkscape:pageopacity="0"
     guidetolerance="10"
     gridtolerance="10"
     objecttolerance="10"
     borderopacity="1"
     bordercolor="#666666"
     pagecolor="#ffffff"><inkscape:grid
       type="xygrid"
       id="grid3700" /></sodipodi:namedview><g
     id="g3696"
     inkscape:groupmode="layer"
     inkscape:label="maki-template-illustrator-CS6"
     transform="matrix(1.3333333,0,0,-1.3333333,0,15)"><rect
       style="fill:#000000;fill-opacity:1;stroke-width:0.71509689"
       id="rect5059"
       width="0.75"
       height="7.5"
       x="2.25"
       y="-8.250001"
       transform="scale(1,-1)" /><path
       transform="scale(1,-1)"
       style="fill:#000000;fill-opacity:1;stroke-width:0.95940322"
       d="m 1.0268555,-9.4555666 -0.15292965,0.458789 C 0.75000002,-8.7184314 0.85764569,-8.6261434 1.1367188,-8.625 H 9.3662112 C 9.7089731,-8.62239 9.6984398,-8.7273099 9.628125,-8.9906251 L 9.4977539,-9.3817384 C 9.3829291,-9.7500002 9.2248077,-9.7500002 9.0029299,-9.75 H 1.5029297 c -0.3135622,-2e-7 -0.3794998,0.050102 -0.4760742,0.2944334 z"
       id="rect5063"
       inkscape:connector-curvature="0"
       sodipodi:nodetypes="ccccccccc" /><path
       style="fill:#000000;fill-opacity:1;stroke-width:0.75"
       d="m 3.375,8.25 0.8759767,2e-7 c 0.2091527,0 0.2166559,-0.1418306 0.1840533,-0.2598805 L 4.2032399,7.0629598 C 4.1142646,6.7898508 4.0792917,6.7500002 3.8759767,6.75 H 3.375 Z"
       id="rect5065"
       inkscape:connector-curvature="0"
       sodipodi:nodetypes="ccccccc" /><path
       style="fill:#000000;fill-opacity:1;stroke-width:0.75"
       d="m 3.3750001,2.2499998 1e-7,3e-7 L 3.9234376,1.153125 C 4.0586909,0.82910158 3.9967238,0.75000002 3.7529298,0.74999976 H 3.3750001 Z"
       id="rect5068"
       inkscape:connector-curvature="0"
       sodipodi:nodetypes="cccccc" /><rect
       style="fill:#000000;fill-opacity:1;stroke-width:0.86602545"
       id="rect5087"
       width="3.0000002"
       height="5.25"
       x="7.5"
       y="-6"
       transform="scale(1,-1)"
       ry="0.38117477" /><rect
       style="fill:#000000;fill-opacity:1;stroke-width:0.75"
       id="rect5089"
       width="1.5"
       height="2.25"
       x="5.25"
       y="-3"
       transform="scale(1,-1)"
       ry="0.34802914" /><rect
       style="fill:#ffffff;fill-opacity:1;stroke-width:0.75"
       id="rect5091"
       width="0.75"
       height="1.125"
       x="8.25"
       y="-5.25"
       transform="scale(1,-1)" /><rect
       style="fill:#ffffff;fill-opacity:1;stroke-width:0.75"
       id="rect5091-1"
       width="0.75"
       height="1.125"
       x="9"
       y="-5.25"
       transform="scale(1,-1)" /><path
       style="fill:#000000;fill-opacity:1;stroke-width:0.75"
       d="m 1.875,2.2500001 h -1e-7 L 1.3265625,1.1531251 C 1.1913092,0.82910192 1.2532763,0.75000032 1.4970703,0.75000002 H 1.875 Z"
       id="rect5068-3"
       inkscape:connector-curvature="0"
       sodipodi:nodetypes="cccccc" /><circle
       style="fill:#ffffff;fill-opacity:1;stroke:none;stroke-width:0.81274259;stroke-linecap:butt;stroke-linejoin:round;stroke-miterlimit:4;stroke-dasharray:none;stroke-opacity:1;paint-order:markers stroke fill"
       id="path5168"
       cx="8.7832031"
       cy="-9.1757812"
       transform="scale(1,-1)"
       r="0.375" /><rect
       style="fill:#ffffff;fill-opacity:1;stroke-width:0.75"
       id="rect5091-9"
       width="0.75"
       height="1.125"
       x="8.25"
       y="-3.75"
       transform="scale(1,-1)" /><rect
       style="fill:#ffffff;fill-opacity:1;stroke-width:0.75"
       id="rect5091-1-0"
       width="0.75"
       height="1.125"
       x="9"
       y="-3.75"
       transform="scale(1,-1)" /></g></svg>