<?xml version="1.0" encoding="UTF-8" standalone="no"?>
<!-- Created with Inkscape (http://www.inkscape.org/) -->

<svg
   xmlns:dc="http://purl.org/dc/elements/1.1/"
   xmlns:cc="http://creativecommons.org/ns#"
   xmlns:rdf="http://www.w3.org/1999/02/22-rdf-syntax-ns#"
   xmlns:svg="http://www.w3.org/2000/svg"
   xmlns="http://www.w3.org/2000/svg"
   xmlns:sodipodi="http://sodipodi.sourceforge.net/DTD/sodipodi-0.dtd"
   xmlns:inkscape="http://www.inkscape.org/namespaces/inkscape"
   inkscape:version="0.92.1 r15371"
   sodipodi:docname="K_15.svg"
   viewBox="0 0 15 15"
   height="15"
   width="15"
   xml:space="preserve"
   id="svg3688"
   version="1.1"><metadata
     id="metadata3694"><rdf:RDF><cc:Work
         rdf:about=""><dc:format>image/svg+xml</dc:format><dc:type
           rdf:resource="http://purl.org/dc/dcmitype/StillImage" /><dc:title></dc:title></cc:Work></rdf:RDF></metadata><defs
     id="defs3692" /><sodipodi:namedview
     inkscape:measure-end="0,0"
     inkscape:measure-start="0,0"
     inkscape:current-layer="g3696"
     inkscape:window-maximized="1"
     inkscape:window-y="-9"
     inkscape:window-x="-9"
     inkscape:cy="4.2721196"
     inkscape:cx="6.4804614"
     inkscape:zoom="128"
     showgrid="true"
     id="namedview3690"
     inkscape:window-height="1121"
     inkscape:window-width="1920"
     inkscape:pageshadow="2"
     inkscape:pageopacity="0"
     guidetolerance="10"
     gridtolerance="10"
     objecttolerance="10"
     borderopacity="1"
     bordercolor="#666666"
     pagecolor="#ffffff"><inkscape:grid
       type="xygrid"
       id="grid3700" /></sodipodi:namedview><g
     id="g3696"
     inkscape:groupmode="layer"
     inkscape:label="maki-template-illustrator-CS6"
     transform="matrix(1.3333333,0,0,-1.3333333,0,15)"><rect
       id="rect36"
       width="9.75"
       height="9.75"
       x="0.75"
       y="-10.5"
       transform="scale(1,-1)"
       style="fill:#000000;stroke-width:0.86602545"
       rx="0.75" /><rect
       style="fill:#ffffff;stroke-width:1.36244273"
       id="rect38"
       width="8.25"
       height="2.2500002"
       x="1.4999998"
       y="-9.75"
       transform="scale(1,-1)"
       rx="0.75" /><rect
       style="fill:#ffffff;stroke-width:0.74672163"
       id="rect42"
       width="1.5"
       height="1.4869152"
       x="1.4999998"
       y="-6"
       transform="scale(1,-1)"
       rx="0.75" /><rect
       style="fill:#ffffff;stroke-width:0.74672163"
       id="rect44"
       width="1.5"
       height="1.5196273"
       x="3.750001"
       y="-6"
       transform="scale(1,-1)"
       rx="0.75" /><rect
       style="fill:#ffffff;stroke-width:0.74672163"
       id="rect46"
       width="1.5"
       height="1.4869152"
       x="6.0000019"
       y="-6"
       transform="scale(1,-1)"
       rx="0.75" /><rect
       rx="0.75"
       transform="scale(1,-1)"
       y="-6"
       x="1.4999998"
       height="1.4869152"
       width="1.5"
       id="rect53"
       style="fill:#ffffff;stroke-width:0.74672163" /><rect
       rx="0.75"
       transform="scale(1,-1)"
       y="-6.0000005"
       x="3.7500002"
       height="1.5"
       width="1.5"
       id="rect55"
       style="fill:#ffffff;stroke-width:0.7418837" /><rect
       rx="0.75"
       transform="scale(1,-1)"
       y="-6"
       x="6.0000019"
       height="1.5"
       width="1.5"
       id="rect57"
       style="fill:#ffffff;stroke-width:0.75" /><rect
       rx="0.75"
       y="-3.7696273"
       x="1.4999998"
       height="1.4869152"
       width="1.5"
       id="rect53-7"
       style="fill:#ffffff;stroke-width:0.74672163"
       transform="scale(1,-1)" /><rect
       rx="0.75"
       y="-3.75"
       x="3.750001"
       height="1.5"
       width="1.5"
       id="rect55-2"
       style="fill:#ffffff;stroke-width:0.7418837"
       transform="scale(1,-1)" /><rect
       rx="0.75"
       y="-3.7500002"
       x="6.0000019"
       height="1.5"
       width="1.5"
       id="rect57-0"
       style="fill:#ffffff;stroke-width:0.75"
       transform="scale(1,-1)" /><rect
       rx="0.75"
       transform="scale(1,-1)"
       y="-6"
       x="1.4999998"
       height="1.4869152"
       width="1.5"
       id="rect111"
       style="fill:#ffffff;stroke-width:0.74672163" /><rect
       style="fill:#ffffff;stroke-width:0.74672163"
       id="rect113"
       width="1.5"
       height="1.4869152"
       x="1.4999998"
       y="-6"
       transform="scale(1,-1)"
       rx="0.75" /><rect
       transform="scale(1,-1)"
       style="fill:#ffffff;stroke-width:0.74672163"
       id="rect115"
       width="1.5"
       height="1.4869152"
       x="1.4999998"
       y="-3.7696273"
       rx="0.75" /><rect
       rx="0.75"
       transform="scale(1,-1)"
       y="-6"
       x="1.4999998"
       height="1.4869152"
       width="1.5"
       id="rect123"
       style="fill:#ffffff;stroke-width:0.74672163" /><rect
       style="fill:#ffffff;stroke-width:0.74672163"
       id="rect125"
       width="1.5"
       height="1.4869152"
       x="1.4999998"
       y="-6"
       transform="scale(1,-1)"
       rx="0.75" /><rect
       transform="scale(1,-1)"
       style="fill:#ffffff;stroke-width:0.74672163"
       id="rect127"
       width="1.5"
       height="1.4869152"
       x="1.4999998"
       y="-3.7696273"
       rx="0.75" /><rect
       style="fill:#ffffff;stroke-width:0.74672163"
       id="rect129"
       width="1.5"
       height="1.4869152"
       x="1.4999998"
       y="-6"
       transform="scale(1,-1)"
       rx="0.75" /><rect
       rx="0.75"
       transform="scale(1,-1)"
       y="-6"
       x="1.4999998"
       height="1.4869152"
       width="1.5"
       id="rect131"
       style="fill:#ffffff;stroke-width:0.74672163" /><rect
       rx="0.75"
       y="-3.7696273"
       x="1.4999998"
       height="1.4869152"
       width="1.5"
       id="rect133"
       style="fill:#ffffff;stroke-width:0.74672163"
       transform="scale(1,-1)" /><rect
       style="fill:#ffffff;stroke-width:0.74672163"
       id="rect135"
       width="1.5"
       height="1.4869152"
       x="1.4999998"
       y="-6"
       transform="scale(1,-1)"
       rx="0.75" /><rect
       rx="0.75"
       transform="scale(1,-1)"
       y="-6"
       x="1.4999998"
       height="1.4869152"
       width="1.5"
       id="rect137"
       style="fill:#ffffff;stroke-width:0.74672163" /><rect
       rx="0.75"
       y="-3.7696273"
       x="1.4999998"
       height="1.4869152"
       width="1.5"
       id="rect139"
       style="fill:#ffffff;stroke-width:0.74672163"
       transform="scale(1,-1)" /><rect
       rx="0.75"
       transform="scale(1,-1)"
       y="-6"
       x="1.4999998"
       height="1.4869152"
       width="1.5"
       id="rect141"
       style="fill:#ffffff;stroke-width:0.74672163" /><rect
       style="fill:#ffffff;stroke-width:0.75"
       id="rect143"
       width="1.5"
       height="1.5"
       x="1.4999998"
       y="-6"
       transform="scale(1,-1)"
       rx="0.75"
       ry="0.75" /><rect
       transform="scale(1,-1)"
       style="fill:#ffffff;stroke-width:0.75"
       id="rect145"
       width="1.5"
       height="1.5"
       x="1.4999998"
       y="-3.7500002"
       rx="0.75"
       ry="0.75" /><rect
       style="fill:#ffffff;stroke-width:0.75"
       id="rect135-1"
       width="1.5"
       height="1.5"
       x="8.25"
       y="-6"
       rx="0.75"
       transform="scale(1,-1)" /><rect
       rx="0.75"
       y="-6"
       x="8.25"
       height="1.5"
       width="1.5"
       id="rect137-5"
       style="fill:#ffffff;stroke-width:0.75"
       transform="scale(1,-1)" /><rect
       rx="0.75"
       y="-3.75"
       x="8.25"
       height="1.5"
       width="1.5"
       id="rect139-7"
       style="fill:#ffffff;stroke-width:0.75"
       transform="scale(1,-1)" /><rect
       rx="0.75"
       y="-6"
       x="8.25"
       height="1.5"
       width="1.5"
       id="rect141-2"
       style="fill:#ffffff;stroke-width:0.75"
       transform="scale(1,-1)" /><rect
       style="fill:#ffffff;stroke-width:0.75"
       id="rect143-2"
       width="1.5"
       height="1.5"
       x="8.25"
       y="-6"
       rx="0.75"
       transform="scale(1,-1)" /><rect
       style="fill:#ffffff;stroke-width:0.75"
       id="rect145-1"
       width="1.5"
       height="1.5"
       x="8.25"
       y="-3.75"
       rx="0.75"
       transform="scale(1,-1)" /></g></svg>