<?xml version="1.0" encoding="UTF-8" standalone="no"?>
<!-- Created with Inkscape (http://www.inkscape.org/) -->

<svg
   xmlns:dc="http://purl.org/dc/elements/1.1/"
   xmlns:cc="http://creativecommons.org/ns#"
   xmlns:rdf="http://www.w3.org/1999/02/22-rdf-syntax-ns#"
   xmlns:svg="http://www.w3.org/2000/svg"
   xmlns="http://www.w3.org/2000/svg"
   xmlns:sodipodi="http://sodipodi.sourceforge.net/DTD/sodipodi-0.dtd"
   xmlns:inkscape="http://www.inkscape.org/namespaces/inkscape"
   version="1.1"
   id="svg3688"
   xml:space="preserve"
   width="15"
   height="15"
   viewBox="0 0 15 15"
   sodipodi:docname="37_15.svg"
   inkscape:version="0.92.1 r15371"><metadata
     id="metadata3694"><rdf:RDF><cc:Work
         rdf:about=""><dc:format>image/svg+xml</dc:format><dc:type
           rdf:resource="http://purl.org/dc/dcmitype/StillImage" /><dc:title></dc:title></cc:Work></rdf:RDF></metadata><defs
     id="defs3692" /><sodipodi:namedview
     pagecolor="#ffffff"
     bordercolor="#666666"
     borderopacity="1"
     objecttolerance="10"
     gridtolerance="10"
     guidetolerance="10"
     inkscape:pageopacity="0"
     inkscape:pageshadow="2"
     inkscape:window-width="1920"
     inkscape:window-height="1137"
     id="namedview3690"
     showgrid="true"
     inkscape:zoom="22.627417"
     inkscape:cx="12.464438"
     inkscape:cy="7.2098996"
     inkscape:window-x="1912"
     inkscape:window-y="10"
     inkscape:window-maximized="1"
     inkscape:current-layer="g3696"
     inkscape:measure-start="0,0"
     inkscape:measure-end="0,0"><inkscape:grid
       type="xygrid"
       id="grid3700" /></sodipodi:namedview><g
     id="g3696"
     inkscape:groupmode="layer"
     inkscape:label="maki-template-illustrator-CS6"
     transform="matrix(1.3333333,0,0,-1.3333333,0,15)"><rect
       style="fill:#000000;fill-opacity:1;stroke:none;stroke-width:0.85039377;stroke-miterlimit:4;stroke-dasharray:none;stroke-opacity:1;paint-order:markers stroke fill"
       id="rect5349"
       width="6"
       height="2.25"
       x="1.5000002"
       y="-7.5"
       transform="scale(1,-1)" /><ellipse
       style="fill:#000000;fill-opacity:1;stroke:none;stroke-width:0.85039377;stroke-miterlimit:4;stroke-dasharray:none;stroke-opacity:1;paint-order:markers stroke fill"
       id="path5351"
       transform="scale(1,-1)"
       cx="7.5"
       cy="-6.375"
       rx="0.75"
       ry="1.125" /><ellipse
       style="fill:#ffffff;fill-opacity:1;stroke:none;stroke-width:0.63779533;stroke-miterlimit:4;stroke-dasharray:none;stroke-opacity:1;paint-order:markers stroke fill"
       id="path5351-3"
       cx="7.4625001"
       cy="-6.3937502"
       rx="0.5625"
       ry="0.84375"
       transform="scale(1,-1)" /><ellipse
       style="fill:#000000;fill-opacity:1;stroke:none;stroke-width:0.85039377;stroke-miterlimit:4;stroke-dasharray:none;stroke-opacity:1;paint-order:markers stroke fill"
       id="path5351-2"
       cx="1.5000001"
       cy="-6.375"
       rx="0.75"
       ry="1.125"
       transform="scale(1,-1)" /><path
       style="fill:none;stroke:#000000;stroke-width:0.375;stroke-linecap:butt;stroke-linejoin:miter;stroke-miterlimit:4;stroke-dasharray:none;stroke-opacity:1"
       d="m 4.4998327,2.2499998 c 0.3405976,0.1454644 0.5505389,0.4416861 0.75,0.7500003 0,0 0.3964465,-0.7500003 0.75,-0.7500003 0.3535535,0 0.7500001,0.7500003 0.7500001,0.7500003 0,0 0.3964465,-0.7500003 0.75,-0.7500003 0.3535535,0 0.75,0.7500003 0.75,0.7500003 0,0 0.3964465,-0.7500003 0.75,-0.7500003 0.3535534,0 0.7499998,0.7500003 0.7499998,0.7500003 C 9.9571975,2.6007765 10.204102,2.3399425 10.499833,2.2499998"
       id="path5404"
       inkscape:connector-curvature="0"
       sodipodi:nodetypes="ccscscscc" /><path
       style="fill:none;stroke:#000000;stroke-width:0.375;stroke-linecap:butt;stroke-linejoin:miter;stroke-miterlimit:4;stroke-dasharray:none;stroke-opacity:1"
       d="m 4.6501678,0.91129553 c 0.3405976,0.14546397 0.5505389,0.44168597 0.75,0.74999997 0,0 0.3964465,-0.74999997 0.75,-0.74999997 0.3535535,0 0.7500001,0.74999997 0.7500001,0.74999997 0,0 0.3964465,-0.74999997 0.75,-0.74999997 0.3535535,0 0.75,0.74999997 0.75,0.74999997 0,0 0.3964465,-0.74999997 0.75,-0.74999997 0.3535534,0 0.7499998,0.74999997 0.7499998,0.74999997 0.2073653,-0.399224 0.4542693,-0.660058 0.7500003,-0.74999997"
       id="path5404-2"
       inkscape:connector-curvature="0"
       sodipodi:nodetypes="ccscscscc" /><path
       style="color:#000000;font-style:normal;font-variant:normal;font-weight:normal;font-stretch:normal;font-size:medium;line-height:normal;font-family:sans-serif;font-variant-ligatures:normal;font-variant-position:normal;font-variant-caps:normal;font-variant-numeric:normal;font-variant-alternates:normal;font-feature-settings:normal;text-indent:0;text-align:start;text-decoration:none;text-decoration-line:none;text-decoration-style:solid;text-decoration-color:#000000;letter-spacing:normal;word-spacing:normal;text-transform:none;writing-mode:lr-tb;direction:ltr;text-orientation:mixed;dominant-baseline:auto;baseline-shift:baseline;text-anchor:start;white-space:normal;shape-padding:0;clip-rule:nonzero;display:inline;overflow:visible;visibility:visible;opacity:1;isolation:auto;mix-blend-mode:normal;color-interpolation:sRGB;color-interpolation-filters:linearRGB;solid-color:#000000;solid-opacity:1;vector-effect:none;fill:#000000;fill-opacity:1;fill-rule:nonzero;stroke:none;stroke-width:0.375;stroke-linecap:butt;stroke-linejoin:miter;stroke-miterlimit:4;stroke-dasharray:none;stroke-dashoffset:0;stroke-opacity:1;color-rendering:auto;image-rendering:auto;shape-rendering:auto;text-rendering:auto;enable-background:accumulate"
       d="M 9.7695312,3.7480469 C 9.761329,4.6348562 9.6290246,5.3604525 9.3691406,5.8925781 9.1092567,6.4247038 8.8468809,6.754851 8.3085939,6.9184714 8.2638614,7.0750029 8.1952741,7.2076881 8.1427327,7.3017489 c 0.061215,0.007 0.053188,0.0072 0.1619545,-0.012686 C 8.9397623,7.0960221 9.4089043,6.6630716 9.7050781,6.0566406 10.001252,5.4502097 10.136006,4.6737315 10.144531,3.7519531 Z"
       id="path5421"
       inkscape:connector-curvature="0"
       sodipodi:nodetypes="cscccscc" /><path
       style="color:#000000;font-style:normal;font-variant:normal;font-weight:normal;font-stretch:normal;font-size:medium;line-height:normal;font-family:sans-serif;font-variant-ligatures:normal;font-variant-position:normal;font-variant-caps:normal;font-variant-numeric:normal;font-variant-alternates:normal;font-feature-settings:normal;text-indent:0;text-align:start;text-decoration:none;text-decoration-line:none;text-decoration-style:solid;text-decoration-color:#000000;letter-spacing:normal;word-spacing:normal;text-transform:none;writing-mode:lr-tb;direction:ltr;text-orientation:mixed;dominant-baseline:auto;baseline-shift:baseline;text-anchor:start;white-space:normal;shape-padding:0;clip-rule:nonzero;display:inline;overflow:visible;visibility:visible;opacity:1;isolation:auto;mix-blend-mode:normal;color-interpolation:sRGB;color-interpolation-filters:linearRGB;solid-color:#000000;solid-opacity:1;vector-effect:none;fill:#000000;fill-opacity:1;fill-rule:nonzero;stroke:none;stroke-width:0.375;stroke-linecap:butt;stroke-linejoin:miter;stroke-miterlimit:4;stroke-dasharray:none;stroke-dashoffset:0;stroke-opacity:1;color-rendering:auto;image-rendering:auto;shape-rendering:auto;text-rendering:auto;enable-background:accumulate"
       d="m 8.6328125,3.7480469 -0.375,0.00391 C 8.2652825,4.3298629 8.1710795,4.759291 7.8183594,5.1191444 7.9302224,5.1988622 8.0548082,5.2684578 8.1123047,5.366211 8.5492443,4.920435 8.6408861,4.3726729 8.6328125,3.7480469 Z"
       id="path5423"
       inkscape:connector-curvature="0"
       sodipodi:nodetypes="ccccc" /><path
       transform="scale(1,-1)"
       style="fill:#ffffff;fill-opacity:1;stroke:none;stroke-width:0.375;stroke-miterlimit:4;stroke-dasharray:none;stroke-opacity:1;paint-order:markers stroke fill"
       d="m 1.5,-7.1594558 5.2500002,0.00414 c -0.069743,0.1074514 -0.1355655,0.2217653 -0.1618257,0.4053124 H 1.3425583 C 1.3463733,-6.9108182 1.3860159,-7.0537224 1.5,-7.1594558 Z"
       id="rect5429"
       inkscape:connector-curvature="0"
       sodipodi:nodetypes="ccccc" /></g></svg>