<?xml version="1.0" encoding="UTF-8" standalone="no"?>
<!-- Created with Inkscape (http://www.inkscape.org/) -->

<svg
   xmlns:dc="http://purl.org/dc/elements/1.1/"
   xmlns:cc="http://creativecommons.org/ns#"
   xmlns:rdf="http://www.w3.org/1999/02/22-rdf-syntax-ns#"
   xmlns:svg="http://www.w3.org/2000/svg"
   xmlns="http://www.w3.org/2000/svg"
   xmlns:sodipodi="http://sodipodi.sourceforge.net/DTD/sodipodi-0.dtd"
   xmlns:inkscape="http://www.inkscape.org/namespaces/inkscape"
   version="1.1"
   id="svg3688"
   xml:space="preserve"
   width="15"
   height="15"
   viewBox="0 0 15 15"
   sodipodi:docname="36_15.svg"
   inkscape:version="0.92.1 r15371"><metadata
     id="metadata3694"><rdf:RDF><cc:Work
         rdf:about=""><dc:format>image/svg+xml</dc:format><dc:type
           rdf:resource="http://purl.org/dc/dcmitype/StillImage" /><dc:title></dc:title></cc:Work></rdf:RDF></metadata><defs
     id="defs3692" /><sodipodi:namedview
     pagecolor="#ffffff"
     bordercolor="#666666"
     borderopacity="1"
     objecttolerance="10"
     gridtolerance="10"
     guidetolerance="10"
     inkscape:pageopacity="0"
     inkscape:pageshadow="2"
     inkscape:window-width="1920"
     inkscape:window-height="1137"
     id="namedview3690"
     showgrid="true"
     inkscape:zoom="32"
     inkscape:cx="7.1710524"
     inkscape:cy="7.7633809"
     inkscape:window-x="1912"
     inkscape:window-y="10"
     inkscape:window-maximized="1"
     inkscape:current-layer="g3696"
     inkscape:measure-start="0,0"
     inkscape:measure-end="0,0"><inkscape:grid
       type="xygrid"
       id="grid3700" /></sodipodi:namedview><g
     id="g3696"
     inkscape:groupmode="layer"
     inkscape:label="maki-template-illustrator-CS6"
     transform="matrix(1.3333333,0,0,-1.3333333,0,15)"><path
       style="fill:#000000;fill-opacity:1;stroke:none;stroke-width:0.96131474;stroke-miterlimit:4;stroke-dasharray:none;stroke-opacity:1;paint-order:markers stroke fill"
       d="M 0.75000002,9.0000002 V 7.3043479 H 7.4154216 c 0.4682415,0 0.8358247,-0.3797385 0.8478262,-0.8478262 V 5.9994631 h 1.6956527 v 0.4570586 c 0,1.4047246 -1.1387543,2.5434785 -2.5434789,2.5434785 z"
       id="rect5230"
       inkscape:connector-curvature="0"
       sodipodi:nodetypes="ccssccssc" /><path
       style="fill:#000000;fill-opacity:1;stroke:none;stroke-width:1.03919649;stroke-miterlimit:4;stroke-dasharray:none;stroke-opacity:1;paint-order:markers stroke fill"
       d="M 8.2500002,5.78142 A 0.42391306,0.42391306 0 0 1 7.8260871,5.3575069 0.42391306,0.42391306 0 0 1 8.2500002,4.9335939 H 9.9456529 A 0.42391306,0.42391306 0 0 1 10.369565,5.3575069 0.42391306,0.42391306 0 0 1 9.9456529,5.78142 Z"
       id="path5271"
       inkscape:connector-curvature="0" /><path
       style="fill:#000000;fill-opacity:1;stroke:none;stroke-width:1.06299222;stroke-miterlimit:4;stroke-dasharray:none;stroke-opacity:1;paint-order:markers stroke fill"
       d="m 9.0820314,3.7500001 c -0.083542,-0.732422 -0.9375,-1.1852515 -0.9375,-1.8750007 0,-0.4419422 0.4197328,-0.93750001 0.9375,-0.93750001 0.5177673,0 0.9374996,0.49555781 0.9374996,0.93750001 0,0.6897492 -0.8649493,1.1425787 -0.9374996,1.8750007 z"
       id="rect5310"
       inkscape:connector-curvature="0"
       sodipodi:nodetypes="csssc" /></g></svg>