<?xml version="1.0" encoding="UTF-8" standalone="no"?>
<!-- Created with Inkscape (http://www.inkscape.org/) -->

<svg
   xmlns:dc="http://purl.org/dc/elements/1.1/"
   xmlns:cc="http://creativecommons.org/ns#"
   xmlns:rdf="http://www.w3.org/1999/02/22-rdf-syntax-ns#"
   xmlns:svg="http://www.w3.org/2000/svg"
   xmlns="http://www.w3.org/2000/svg"
   xmlns:sodipodi="http://sodipodi.sourceforge.net/DTD/sodipodi-0.dtd"
   xmlns:inkscape="http://www.inkscape.org/namespaces/inkscape"
   version="1.1"
   id="svg3688"
   xml:space="preserve"
   width="15"
   height="15"
   viewBox="0 0 15 15"
   sodipodi:docname="G_15.svg"
   inkscape:version="0.92.1 r15371"><metadata
     id="metadata3694"><rdf:RDF><cc:Work
         rdf:about=""><dc:format>image/svg+xml</dc:format><dc:type
           rdf:resource="http://purl.org/dc/dcmitype/StillImage" /><dc:title /></cc:Work></rdf:RDF></metadata><defs
     id="defs3692" /><sodipodi:namedview
     pagecolor="#ffffff"
     bordercolor="#666666"
     borderopacity="1"
     objecttolerance="10"
     gridtolerance="10"
     guidetolerance="10"
     inkscape:pageopacity="0"
     inkscape:pageshadow="2"
     inkscape:window-width="1920"
     inkscape:window-height="1137"
     id="namedview3690"
     showgrid="true"
     inkscape:zoom="64"
     inkscape:cx="4.9296662"
     inkscape:cy="5.3515691"
     inkscape:window-x="1912"
     inkscape:window-y="10"
     inkscape:window-maximized="1"
     inkscape:current-layer="g3696"
     inkscape:measure-start="0,0"
     inkscape:measure-end="0,0"><inkscape:grid
       type="xygrid"
       id="grid3700" /></sodipodi:namedview><g
     id="g3696"
     inkscape:groupmode="layer"
     inkscape:label="maki-template-illustrator-CS6"
     transform="matrix(1.3333333,0,0,-1.3333333,0,15)"><rect
       id="rect19"
       width="0.75"
       height="7.5"
       x="0.75000006"
       y="-7.5"
       transform="scale(1,-1)"
       style="stroke-width:0.75" /><rect
       id="rect21"
       width="9.75"
       height="1.5"
       x="0.75"
       y="-1.4999998"
       transform="scale(1,-1)"
       style="stroke-width:0.75" /><rect
       id="rect23"
       width="0.75"
       height="7.5"
       x="9.75"
       y="-7.5"
       transform="scale(1,-1)"
       style="stroke-width:0.75" /><path
       transform="scale(1,-1)"
       style="stroke-width:0.75"
       d="m 1.5,-11.25 h 8.25 l 1.5,2.2499998 H 0 Z"
       id="rect25"
       inkscape:connector-curvature="0"
       sodipodi:nodetypes="ccccc" /><path
       id="path94"
       transform="scale(1,-1)"
       sodipodi:type="arc"
       sodipodi:cx="1.125"
       sodipodi:cy="-9"
       sodipodi:rx="1.125"
       sodipodi:ry="1.125"
       sodipodi:start="0"
       sodipodi:end="3.1415927"
       d="m 2.25,-9 a 1.125,1.125 0 0 1 -0.5625,0.9742786 1.125,1.125 0 0 1 -1.12500003,0 A 1.125,1.125 0 0 1 0,-9.0000001 L 1.125,-9 Z"
       style="stroke-width:0.75" /><path
       id="path94-2"
       sodipodi:type="arc"
       sodipodi:cx="3.375"
       sodipodi:cy="-9"
       sodipodi:rx="1.125"
       sodipodi:ry="1.125"
       sodipodi:start="0"
       sodipodi:end="3.1415927"
       d="m 4.5,-9 a 1.125,1.125 0 0 1 -0.5625,0.9742786 1.125,1.125 0 0 1 -1.125,0 A 1.125,1.125 0 0 1 2.25,-9.0000001 L 3.375,-9 Z"
       style="stroke-width:0.75"
       transform="scale(1,-1)" /><path
       id="path94-2-6"
       sodipodi:type="arc"
       sodipodi:cx="5.625"
       sodipodi:cy="-9"
       sodipodi:rx="1.125"
       sodipodi:ry="1.125"
       sodipodi:start="0"
       sodipodi:end="3.1415927"
       d="m 6.75,-9 a 1.125,1.125 0 0 1 -0.5625,0.9742786 1.125,1.125 0 0 1 -1.125,0 A 1.125,1.125 0 0 1 4.5,-9.0000001 L 5.625,-9 Z"
       style="stroke-width:0.75"
       transform="scale(1,-1)" /><path
       id="path94-9"
       sodipodi:type="arc"
       sodipodi:cx="7.875"
       sodipodi:cy="-9"
       sodipodi:rx="1.125"
       sodipodi:ry="1.125"
       sodipodi:start="0"
       sodipodi:end="3.1415927"
       d="m 9,-9 a 1.125,1.125 0 0 1 -0.5625,0.9742786 1.125,1.125 0 0 1 -1.125,0 A 1.125,1.125 0 0 1 6.75,-9.0000001 L 7.875,-9 Z"
       style="stroke-width:0.75"
       transform="scale(1,-1)" /><path
       id="path94-2-2"
       sodipodi:type="arc"
       sodipodi:cx="10.109931"
       sodipodi:cy="-9"
       sodipodi:rx="1.125"
       sodipodi:ry="1.125"
       sodipodi:start="0"
       sodipodi:end="3.1415927"
       d="m 11.234931,-9 a 1.125,1.125 0 0 1 -0.5625,0.9742786 1.125,1.125 0 0 1 -1.125,0 1.125,1.125 0 0 1 -0.5625,-0.9742787 l 1.125,10e-8 z"
       style="stroke-width:0.75"
       transform="scale(1,-1)" /></g></svg>