<?xml version="1.0" encoding="UTF-8" standalone="no"?>
<!-- Created with Inkscape (http://www.inkscape.org/) -->

<svg
   xmlns:dc="http://purl.org/dc/elements/1.1/"
   xmlns:cc="http://creativecommons.org/ns#"
   xmlns:rdf="http://www.w3.org/1999/02/22-rdf-syntax-ns#"
   xmlns:svg="http://www.w3.org/2000/svg"
   xmlns="http://www.w3.org/2000/svg"
   xmlns:sodipodi="http://sodipodi.sourceforge.net/DTD/sodipodi-0.dtd"
   xmlns:inkscape="http://www.inkscape.org/namespaces/inkscape"
   version="1.1"
   id="svg3688"
   xml:space="preserve"
   width="15"
   height="15"
   viewBox="0 0 15 15"
   sodipodi:docname="36.0_15.svg"
   inkscape:version="0.92.1 r15371"><metadata
     id="metadata3694"><rdf:RDF><cc:Work
         rdf:about=""><dc:format>image/svg+xml</dc:format><dc:type
           rdf:resource="http://purl.org/dc/dcmitype/StillImage" /><dc:title></dc:title></cc:Work></rdf:RDF></metadata><defs
     id="defs3692" /><sodipodi:namedview
     pagecolor="#ffffff"
     bordercolor="#666666"
     borderopacity="1"
     objecttolerance="10"
     gridtolerance="10"
     guidetolerance="10"
     inkscape:pageopacity="0"
     inkscape:pageshadow="2"
     inkscape:window-width="1920"
     inkscape:window-height="1137"
     id="namedview3690"
     showgrid="true"
     inkscape:zoom="45.254834"
     inkscape:cx="7.2907634"
     inkscape:cy="4.8034441"
     inkscape:window-x="1912"
     inkscape:window-y="10"
     inkscape:window-maximized="1"
     inkscape:current-layer="g3696"
     inkscape:measure-start="0,0"
     inkscape:measure-end="0,0"><inkscape:grid
       type="xygrid"
       id="grid3700" /></sodipodi:namedview><g
     id="g3696"
     inkscape:groupmode="layer"
     inkscape:label="maki-template-illustrator-CS6"
     transform="matrix(1.3333333,0,0,-1.3333333,0,15)"><path
       style="fill:#000000;fill-opacity:1;stroke:none;stroke-width:1.13385832;stroke-miterlimit:4;stroke-dasharray:none;stroke-opacity:1;paint-order:markers stroke fill"
       d="M 1 5 L 1 7 L 9 7 A 0.99999998 0.99999998 0 0 1 10 8 L 10 8.5 L 12 8.5 L 12 8 A 2.9999999 2.9999999 0 0 0 9 5 L 1 5 z "
       transform="matrix(0.75000002,0,0,-0.75000002,0,11.25)"
       id="rect5230" /><path
       style="fill:#000000;fill-opacity:1;stroke:none;stroke-width:0.91928923;stroke-miterlimit:4;stroke-dasharray:none;stroke-opacity:1;paint-order:markers stroke fill"
       d="m 7.5000002,4.5000001 a 0.375,0.375 0 0 1 -0.375,-0.375 0.375,0.375 0 0 1 0.375,-0.375 h 1.5 a 0.375,0.375 0 0 1 0.375,0.375 0.375,0.375 0 0 1 -0.375,0.375 z"
       id="path5271"
       inkscape:connector-curvature="0" /><path
       style="fill:#000000;fill-opacity:1;stroke:none;stroke-width:1.13385832;stroke-miterlimit:4;stroke-dasharray:none;stroke-opacity:1;paint-order:markers stroke fill"
       d="m 11,11 c -0.08911,0.78125 -1,1.264268 -1,2 0,0.471405 0.447715,1 1,1 0.552285,0 1,-0.528595 1,-1 0,-0.735732 -0.922613,-1.21875 -1,-2 z"
       transform="matrix(0.75000002,0,0,-0.75000002,0,11.25)"
       id="rect5310"
       inkscape:connector-curvature="0"
       sodipodi:nodetypes="csssc" /></g></svg>